<?xml version="1.0" encoding="UTF-8"?><!DOCTYPE svg PUBLIC "-//W3C//DTD SVG 1.1//EN" "http://www.w3.org/Graphics/SVG/1.1/DTD/svg11.dtd"><svg xmlns="http://www.w3.org/2000/svg"><symbol id="icono-bookmark" viewBox="0 0 459 459"><path d="M357 0H102C73.95 0 51 22.95 51 51v408l178.5-76.5L408 459V51c0-28.05-22.95-51-51-51z"/></symbol><symbol id="icono-chat" viewBox="0 0 510 510"><path d="M484.5 102h-51v229.5H102v51c0 15.3 10.2 25.5 25.5 25.5H408l102 102V127.5c0-15.3-10.2-25.5-25.5-25.5zm-102 153V25.5C382.5 10.2 372.3 0 357 0H25.5C10.2 0 0 10.2 0 25.5v357l102-102h255c15.3 0 25.5-10.2 25.5-25.5z"/></symbol><symbol id="icono-credit" viewBox="0 0 426.667 426.667"><path d="M384 42.667H42.667C19.094 42.667.214 61.76.214 85.334L0 341.333C0 364.907 19.093 384 42.667 384H384c23.573 0 42.667-19.093 42.667-42.667v-256c0-23.573-19.094-42.666-42.667-42.666zm0 298.666H42.667v-128H384v128zM384 128H42.667V85.333H384V128z"/></symbol><symbol id="icono-dashboard" viewBox="0 0 384 384"><path d="M213.333 0H384v128H213.333zM0 0h170.667v213.333H0zM0 256h170.667v128H0zM213.333 170.667H384V384H213.333z"/></symbol><symbol id="icono-down" viewBox="0 0 451.847 451.847"><path d="M225.923 354.706c-8.098 0-16.195-3.092-22.369-9.263L9.27 151.157c-12.359-12.359-12.359-32.397 0-44.751 12.354-12.354 32.388-12.354 44.748 0l171.905 171.915 171.906-171.909c12.359-12.354 32.391-12.354 44.744 0 12.365 12.354 12.365 32.392 0 44.751L248.292 345.449c-6.177 6.172-14.274 9.257-22.369 9.257z"/></symbol><symbol id="icono-list" viewBox="0 0 384 384"><path d="M149.333 277.333h85.333V320h-85.333zM64 170.667h256v42.667H64zM0 64h384v42.667H0z"/></symbol><symbol id="icono-men" viewBox="0 0 561 561"><path d="M382.5 255c43.35 0 76.5-33.15 76.5-76.5S425.85 102 382.5 102 306 135.15 306 178.5s33.15 76.5 76.5 76.5zm-204 0c43.35 0 76.5-33.15 76.5-76.5S221.85 102 178.5 102 102 135.15 102 178.5s33.15 76.5 76.5 76.5zm0 51C119.85 306 0 336.6 0 395.25V459h357v-63.75C357 336.6 237.15 306 178.5 306zm204 0c-7.65 0-15.3 0-25.5 2.55 30.6 20.4 51 51 51 86.7V459h153v-63.75C561 336.6 441.15 306 382.5 306z"/></symbol><symbol id="icono-notifications" viewBox="0 0 416 416"><path d="M208 416c23.573 0 42.667-19.093 42.667-42.667h-85.333C165.333 396.907 184.427 416 208 416zM336 288V181.333c0-65.6-34.88-120.32-96-134.827V32c0-17.707-14.293-32-32-32s-32 14.293-32 32v14.507c-61.12 14.507-96 69.227-96 134.827V288l-42.667 42.667V352h341.333v-21.333L336 288zm-42.667 21.333H122.667v-128c0-53.013 32.32-96 85.333-96s85.333 42.987 85.333 96v128z"/></symbol><symbol id="icono-plus" viewBox="0 0 510 510"><path d="M280.5 127.5h-51v102h-102v51h102v102h51v-102h102v-51h-102v-102zM255 0C114.75 0 0 114.75 0 255s114.75 255 255 255 255-114.75 255-255S395.25 0 255 0zm0 459c-112.2 0-204-91.8-204-204S142.8 51 255 51s204 91.8 204 204-91.8 204-204 204z"/></symbol><symbol id="icono-power" viewBox="0 0 384 384"><path d="M316.48 46.187l-30.187 30.187c33.493 27.413 55.04 68.907 55.04 115.627 0 82.453-66.88 149.333-149.333 149.333S42.667 274.453 42.667 192c0-46.72 21.547-88.213 55.04-115.627L67.52 46.187C26.347 81.387 0 133.547 0 192c0 106.027 85.973 192 192 192s192-85.973 192-192c0-58.453-26.347-110.613-67.52-145.813z"/><path d="M170.667 0h42.667v213.333h-42.667z"/></symbol><symbol id="icono-search" viewBox="0 0 446.25 446.25"><path d="M318.75 280.5h-20.4l-7.649-7.65c25.5-28.05 40.8-66.3 40.8-107.1C331.5 73.95 257.55 0 165.75 0S0 73.95 0 165.75 73.95 331.5 165.75 331.5c40.8 0 79.05-15.3 107.1-40.8l7.65 7.649v20.4L408 446.25 446.25 408l-127.5-127.5zm-153 0C102 280.5 51 229.5 51 165.75S102 51 165.75 51 280.5 102 280.5 165.75s-51 114.75-114.75 114.75z"/></symbol><symbol id="icono-social" viewBox="0 0 561 561"><path d="M382.5 255c43.35 0 76.5-33.15 76.5-76.5S425.85 102 382.5 102 306 135.15 306 178.5s33.15 76.5 76.5 76.5zm-204 0c43.35 0 76.5-33.15 76.5-76.5S221.85 102 178.5 102 102 135.15 102 178.5s33.15 76.5 76.5 76.5zm0 51C119.85 306 0 336.6 0 395.25V459h357v-63.75C357 336.6 237.15 306 178.5 306zm204 0c-7.65 0-15.3 0-25.5 2.55 30.6 20.4 51 51 51 86.7V459h153v-63.75C561 336.6 441.15 306 382.5 306z"/></symbol><symbol id="icono-sort" viewBox="0 0 384 384"><path d="M0 277.333h128V320H0zM0 170.667h256v42.667H0zM0 64h384v42.667H0z"/></symbol><symbol id="icono-ticket" viewBox="0 0 426.667 426.667"><path d="M426.667 170.667V85.333c0-23.573-19.093-42.667-42.667-42.667H42.667C19.094 42.666.214 61.759.214 85.333l-.107 85.333c23.573.107 42.56 19.2 42.56 42.667C42.667 236.906 23.574 256 .107 256L0 341.333C0 364.907 19.093 384 42.667 384H384c23.573 0 42.667-19.093 42.667-42.667V256C403.093 256 384 236.907 384 213.333s19.093-42.666 42.667-42.666zm-136.96 145.066l-76.373-49.067-76.373 49.067L160 227.947 89.813 170.56l90.56-5.333 32.96-84.16 32.96 84.16 90.56 5.333-70.187 57.387 23.041 87.786z"/></symbol><symbol id="icono-user" viewBox="0 0 408 408"><path d="M204 204c56.1 0 102-45.9 102-102S260.1 0 204 0 102 45.9 102 102s45.9 102 102 102zm0 51C135.15 255 0 288.15 0 357v51h408v-51c0-68.85-135.15-102-204-102z"/></symbol></svg>